<svg width="61" height="62" viewBox="0 0 61 62" fill="none" xmlns="http://www.w3.org/2000/svg">
<path d="M1.81329 11.702H47.8329V24.7157H1.81329V11.702Z" fill="#FFDA45"/>
<path d="M42.7015 11.702H47.8329V24.7157H42.7015V11.702Z" fill="#FAC800"/>
<path d="M28.2027 11.702H42.7615V24.7157H28.2027V11.702Z" fill="#FFF5F5"/>
<path d="M57.3602 61.0903H11.6948C7.96008 61.0903 4.93244 58.0131 4.93244 54.2171C4.93244 50.4212 7.96008 47.344 11.6948 47.344H57.3602V61.0903Z" fill="#F0F5FA"/>
<path d="M52.5868 47.3441H57.3602V61.0903H52.5868V47.3441Z" fill="#E4ECF2"/>
<path d="M59.7467 62H11.6948C7.4726 62 4.03744 58.5086 4.03744 54.2171C4.03744 49.9256 7.47248 46.4343 11.6948 46.4343H59.7469C60.2411 46.4343 60.6419 46.8416 60.6419 47.3439C60.6419 47.8463 60.2411 48.2536 59.7469 48.2536H11.6948C8.45962 48.2536 5.82746 50.9288 5.82746 54.2171C5.82746 57.5053 8.4595 60.1806 11.6948 60.1806H59.7469C60.2411 60.1806 60.6419 60.5879 60.6419 61.0903C60.6419 61.5927 60.2411 62 59.7467 62Z" fill="#6E9EFF"/>
<path d="M57.3601 52.8359H20.4965C20.0022 52.8359 19.6015 52.4286 19.6015 51.9262C19.6015 51.4238 20.0022 51.0165 20.4965 51.0165H57.3601V52.8359Z" fill="#C5D7E6"/>
<path d="M57.3601 57.418H30.2844C29.7901 57.418 29.3893 57.0107 29.3893 56.5083C29.3893 56.0059 29.7901 55.5986 30.2844 55.5986H57.3601V57.418Z" fill="#C5D7E6"/>
<path d="M49.7061 45.5298H5.27148C2.85448 45.5298 0.895004 43.5383 0.895004 41.0816C0.895004 38.6249 2.85436 36.6333 5.27148 36.6333H49.7062V45.5298H49.7061Z" fill="#F0F5FA"/>
<path d="M44.9327 36.6333H49.7061V45.5298H44.9327V36.6333Z" fill="#E4ECF2"/>
<path d="M52.4441 46.4395H5.27148C2.36485 46.4395 0 44.036 0 41.0816C0 38.1272 2.36473 35.7237 5.27148 35.7237H52.4441C52.9384 35.7237 53.3391 36.131 53.3391 36.6333C53.3391 37.1357 52.9384 37.543 52.4441 37.543H5.27148C3.35187 37.543 1.79002 39.1304 1.79002 41.0816C1.79002 43.0328 3.35175 44.6201 5.27148 44.6201H52.4441C52.9384 44.6201 53.3391 45.0274 53.3391 45.5298C53.3391 46.0322 52.9384 46.4395 52.4441 46.4395Z" fill="#74D84B"/>
<path d="M49.7061 42.1802H37.1383C36.6441 42.1802 36.2433 41.7729 36.2433 41.2705C36.2433 40.7682 36.6441 40.3609 37.1383 40.3609H49.7061V42.1802Z" fill="#C5D7E6"/>
<path d="M15.6979 0.909683H51.3634C54.0484 0.909683 56.2249 3.12203 56.2249 5.85095C56.2249 8.58 54.0483 10.7922 51.3634 10.7922H15.6979V0.909683Z" fill="#F0F5FA"/>
<path d="M51.3634 0.909683H46.59C49.275 0.909683 51.4516 3.12203 51.4516 5.85095C51.4516 8.58 49.2749 10.7922 46.59 10.7922H51.3634C54.0484 10.7922 56.2249 8.57987 56.2249 5.85095C56.2249 3.12203 54.0484 0.909683 51.3634 0.909683Z" fill="#E4ECF2"/>
<path d="M51.3634 11.702H12.6564C12.1621 11.702 11.7614 11.2947 11.7614 10.7923C11.7614 10.29 12.1621 9.88266 12.6564 9.88266H51.3634C53.5505 9.88266 55.3299 8.07409 55.3299 5.85107C55.3299 3.62805 53.5505 1.81936 51.3634 1.81936H12.6564C12.1621 1.81936 11.7614 1.41207 11.7614 0.909681C11.7614 0.407295 12.1621 0 12.6564 0H51.3634C54.5376 0 57.12 2.62473 57.12 5.85095C57.12 9.07716 54.5376 11.702 51.3634 11.702Z" fill="#FC435F"/>
<path d="M6.99276 24.7156H60.2043V35.7237H6.99276V24.7156Z" fill="#6E9EFF"/>
<path d="M43.9548 24.7156H60.2043V35.7237H43.9548V24.7156Z" fill="#BF6930"/>
<path d="M55.4309 24.7156H60.2043V35.7237H55.4309V24.7156Z" fill="#AD5F2C"/>
<path d="M25.2989 32.039H13.1257C12.1372 32.039 11.3357 31.2244 11.3357 30.2196C11.3357 29.2148 12.1372 28.4003 13.1257 28.4003H25.2989C26.2875 28.4003 27.0889 29.2148 27.0889 30.2196C27.0889 31.2244 26.2875 32.039 25.2989 32.039Z" fill="#FFF5F5"/>
<path d="M55.033 31.1293H49.2056C48.7113 31.1293 48.3106 30.722 48.3106 30.2196C48.3106 29.7172 48.7113 29.3099 49.2056 29.3099H55.033C55.5273 29.3099 55.928 29.7172 55.928 30.2196C55.928 30.722 55.5274 31.1293 55.033 31.1293Z" fill="#FFF5F5"/>
<path d="M38.7439 20.2502C38.2496 20.2502 37.8489 19.8429 37.8489 19.3406V17.077C37.8489 16.5746 38.2496 16.1673 38.7439 16.1673C39.2381 16.1673 39.6389 16.5746 39.6389 17.077V19.3406C39.6389 19.8429 39.2383 20.2502 38.7439 20.2502Z" fill="#677A8F"/>
<path d="M35.4821 20.2502C34.9878 20.2502 34.5871 19.8429 34.5871 19.3406V17.077C34.5871 16.5746 34.9878 16.1673 35.4821 16.1673C35.9764 16.1673 36.3771 16.5746 36.3771 17.077V19.3406C36.3771 19.8429 35.9765 20.2502 35.4821 20.2502Z" fill="#677A8F"/>
<path d="M32.2203 20.2502C31.7261 20.2502 31.3253 19.8429 31.3253 19.3406V17.077C31.3253 16.5746 31.7261 16.1673 32.2203 16.1673C32.7146 16.1673 33.1153 16.5746 33.1153 17.077V19.3406C33.1153 19.8429 32.7146 20.2502 32.2203 20.2502Z" fill="#677A8F"/>
<path d="M15.6726 4.94127H36.0952C36.5895 4.94127 36.9902 5.34856 36.9902 5.85095C36.9902 6.35334 36.5895 6.76063 36.0952 6.76063H15.6726V4.94127Z" fill="#C5D7E6"/>
</svg>
